<svg xmlns="http://www.w3.org/2000/svg" xmlns:xlink="http://www.w3.org/1999/xlink" width="400" zoomAndPan="magnify" viewBox="0 0 300 225" height="300" preserveAspectRatio="xMidYMid meet" version="1.0"><defs><g/></defs><path stroke-linecap="butt" transform="matrix(0.7493, 0, 0, 0.75, 55.740372, 165.767977)" fill="none" stroke-linejoin="miter" d="M 0.00242282 6.002073 L 251.236793 6.002073 " stroke="#8c52ff" stroke-width="12" stroke-opacity="1" stroke-miterlimit="4"/><path stroke-linecap="butt" transform="matrix(0.749438, 0, 0, 0.75, 55.740372, 33.591066)" fill="none" stroke-linejoin="miter" d="M 0.00242238 5.998371 L 250.200358 5.998371 " stroke="#d9d9d9" stroke-width="12" stroke-opacity="1" stroke-miterlimit="4"/><path stroke-linecap="butt" transform="matrix(-0.00360792, -0.750306, 0.749991, -0.00360641, 55.90692, 145.336175)" fill="none" stroke-linejoin="miter" d="M -0.00248773 5.999164 L 148.936732 6.002105 " stroke="#d9d9d9" stroke-width="12" stroke-opacity="1" stroke-miterlimit="4"/><g fill="#8c52ff" fill-opacity="1"><g transform="translate(127.52891, 117.314986)"><g><path d="M 9.5 -4.09375 C 9.5 -4.707031 9.28125 -5.175781 8.84375 -5.5 C 8.414062 -5.820312 7.644531 -6.160156 6.53125 -6.515625 C 5.414062 -6.878906 4.535156 -7.238281 3.890625 -7.59375 C 2.109375 -8.550781 1.21875 -9.84375 1.21875 -11.46875 C 1.21875 -12.3125 1.457031 -13.0625 1.9375 -13.71875 C 2.414062 -14.382812 3.097656 -14.898438 3.984375 -15.265625 C 4.878906 -15.640625 5.878906 -15.828125 6.984375 -15.828125 C 8.097656 -15.828125 9.09375 -15.625 9.96875 -15.21875 C 10.84375 -14.820312 11.519531 -14.253906 12 -13.515625 C 12.476562 -12.773438 12.71875 -11.9375 12.71875 -11 L 9.5 -11 C 9.5 -11.71875 9.273438 -12.273438 8.828125 -12.671875 C 8.378906 -13.066406 7.742188 -13.265625 6.921875 -13.265625 C 6.140625 -13.265625 5.53125 -13.097656 5.09375 -12.765625 C 4.65625 -12.429688 4.4375 -11.992188 4.4375 -11.453125 C 4.4375 -10.941406 4.691406 -10.515625 5.203125 -10.171875 C 5.710938 -9.835938 6.46875 -9.519531 7.46875 -9.21875 C 9.300781 -8.664062 10.632812 -7.976562 11.46875 -7.15625 C 12.300781 -6.34375 12.71875 -5.332031 12.71875 -4.125 C 12.71875 -2.769531 12.207031 -1.707031 11.1875 -0.9375 C 10.164062 -0.164062 8.789062 0.21875 7.0625 0.21875 C 5.851562 0.21875 4.753906 0 3.765625 -0.4375 C 2.785156 -0.882812 2.035156 -1.488281 1.515625 -2.25 C 0.992188 -3.019531 0.734375 -3.90625 0.734375 -4.90625 L 3.96875 -4.90625 C 3.96875 -3.1875 5 -2.328125 7.0625 -2.328125 C 7.820312 -2.328125 8.414062 -2.484375 8.84375 -2.796875 C 9.28125 -3.109375 9.5 -3.539062 9.5 -4.09375 Z M 9.5 -4.09375 "/></g></g></g><g fill="#8c52ff" fill-opacity="1"><g transform="translate(141.036268, 117.314986)"><g><path d="M 0.703125 -5.90625 C 0.703125 -7.0625 0.921875 -8.085938 1.359375 -8.984375 C 1.804688 -9.890625 2.445312 -10.585938 3.28125 -11.078125 C 4.113281 -11.578125 5.082031 -11.828125 6.1875 -11.828125 C 7.75 -11.828125 9.023438 -11.347656 10.015625 -10.390625 C 11.015625 -9.429688 11.570312 -8.128906 11.6875 -6.484375 L 11.703125 -5.6875 C 11.703125 -3.90625 11.203125 -2.472656 10.203125 -1.390625 C 9.210938 -0.316406 7.878906 0.21875 6.203125 0.21875 C 4.535156 0.21875 3.203125 -0.316406 2.203125 -1.390625 C 1.203125 -2.460938 0.703125 -3.921875 0.703125 -5.765625 Z M 3.8125 -5.6875 C 3.8125 -4.582031 4.015625 -3.738281 4.421875 -3.15625 C 4.835938 -2.570312 5.429688 -2.28125 6.203125 -2.28125 C 6.960938 -2.28125 7.550781 -2.566406 7.96875 -3.140625 C 8.394531 -3.722656 8.609375 -4.644531 8.609375 -5.90625 C 8.609375 -6.988281 8.394531 -7.828125 7.96875 -8.421875 C 7.550781 -9.015625 6.957031 -9.3125 6.1875 -9.3125 C 5.425781 -9.3125 4.835938 -9.015625 4.421875 -8.421875 C 4.015625 -7.835938 3.8125 -6.925781 3.8125 -5.6875 Z M 3.8125 -5.6875 "/></g></g></g><g fill="#8c52ff" fill-opacity="1"><g transform="translate(153.460028, 117.314986)"><g><path d="M 4.046875 -11.609375 L 4.140625 -10.265625 C 4.972656 -11.304688 6.085938 -11.828125 7.484375 -11.828125 C 8.710938 -11.828125 9.625 -11.460938 10.21875 -10.734375 C 10.820312 -10.015625 11.128906 -8.9375 11.140625 -7.5 L 11.140625 0 L 8.046875 0 L 8.046875 -7.421875 C 8.046875 -8.078125 7.898438 -8.550781 7.609375 -8.84375 C 7.328125 -9.144531 6.851562 -9.296875 6.1875 -9.296875 C 5.3125 -9.296875 4.65625 -8.925781 4.21875 -8.1875 L 4.21875 0 L 1.125 0 L 1.125 -11.609375 Z M 4.046875 -11.609375 "/></g></g></g><g fill="#8c52ff" fill-opacity="1"><g transform="translate(165.765779, 117.314986)"><g><path d="M 4.46875 0 L 1.359375 0 L 1.359375 -11.609375 L 4.46875 -11.609375 Z M 1.171875 -14.609375 C 1.171875 -15.078125 1.328125 -15.457031 1.640625 -15.75 C 1.953125 -16.050781 2.375 -16.203125 2.90625 -16.203125 C 3.4375 -16.203125 3.859375 -16.050781 4.171875 -15.75 C 4.484375 -15.457031 4.640625 -15.078125 4.640625 -14.609375 C 4.640625 -14.140625 4.476562 -13.753906 4.15625 -13.453125 C 3.84375 -13.148438 3.425781 -13 2.90625 -13 C 2.382812 -13 1.960938 -13.148438 1.640625 -13.453125 C 1.328125 -13.753906 1.171875 -14.140625 1.171875 -14.609375 Z M 1.171875 -14.609375 "/></g></g></g><g fill="#d9d9d9" fill-opacity="1"><g transform="translate(70.073317, 141.074729)"><g><path d="M 1.390625 0 L 1.390625 -15.609375 L 6.203125 -15.609375 C 7.566406 -15.609375 8.789062 -15.296875 9.875 -14.671875 C 10.957031 -14.054688 11.800781 -13.175781 12.40625 -12.03125 C 13.019531 -10.894531 13.328125 -9.601562 13.328125 -8.15625 L 13.328125 -7.4375 C 13.328125 -5.988281 13.023438 -4.695312 12.421875 -3.5625 C 11.828125 -2.4375 10.988281 -1.5625 9.90625 -0.9375 C 8.820312 -0.320312 7.597656 -0.0078125 6.234375 0 Z M 4.609375 -13 L 4.609375 -2.578125 L 6.15625 -2.578125 C 7.414062 -2.578125 8.378906 -2.988281 9.046875 -3.8125 C 9.710938 -4.632812 10.050781 -5.8125 10.0625 -7.34375 L 10.0625 -8.171875 C 10.0625 -9.753906 9.734375 -10.953125 9.078125 -11.765625 C 8.421875 -12.585938 7.460938 -13 6.203125 -13 Z M 4.609375 -13 "/></g></g></g><g fill="#d9d9d9" fill-opacity="1"><g transform="translate(84.778427, 141.074729)"><g><path d="M 6.53125 0.21875 C 4.832031 0.21875 3.445312 -0.300781 2.375 -1.34375 C 1.300781 -2.394531 0.765625 -3.785156 0.765625 -5.515625 L 0.765625 -5.828125 C 0.765625 -6.984375 0.988281 -8.019531 1.4375 -8.9375 C 1.894531 -9.863281 2.535156 -10.570312 3.359375 -11.0625 C 4.179688 -11.5625 5.125 -11.8125 6.1875 -11.8125 C 7.769531 -11.8125 9.015625 -11.3125 9.921875 -10.3125 C 10.835938 -9.3125 11.296875 -7.894531 11.296875 -6.0625 L 11.296875 -4.796875 L 3.90625 -4.796875 C 4.007812 -4.035156 4.3125 -3.425781 4.8125 -2.96875 C 5.320312 -2.507812 5.960938 -2.28125 6.734375 -2.28125 C 7.921875 -2.28125 8.851562 -2.710938 9.53125 -3.578125 L 11.046875 -1.875 C 10.585938 -1.21875 9.957031 -0.703125 9.15625 -0.328125 C 8.363281 0.0351562 7.488281 0.21875 6.53125 0.21875 Z M 6.171875 -9.296875 C 5.554688 -9.296875 5.054688 -9.085938 4.671875 -8.671875 C 4.296875 -8.265625 4.050781 -7.675781 3.9375 -6.90625 L 8.25 -6.90625 L 8.25 -7.15625 C 8.238281 -7.832031 8.050781 -8.359375 7.6875 -8.734375 C 7.332031 -9.109375 6.828125 -9.296875 6.171875 -9.296875 Z M 6.453125 -16.46875 L 9.84375 -16.46875 L 6.875 -13.140625 L 4.34375 -13.140625 Z M 6.453125 -16.46875 "/></g></g></g><g fill="#d9d9d9" fill-opacity="1"><g transform="translate(97.082668, 141.074729)"><g><path d="M 5.53125 -3.78125 L 7.6875 -11.59375 L 10.921875 -11.59375 L 7.015625 0 L 4.046875 0 L 0.140625 -11.59375 L 3.375 -11.59375 Z M 5.53125 -3.78125 "/></g></g></g><g fill="#d9d9d9" fill-opacity="1"><g transform="translate(108.6152, 141.074729)"><g><path d="M 6.53125 0.21875 C 4.832031 0.21875 3.445312 -0.300781 2.375 -1.34375 C 1.300781 -2.394531 0.765625 -3.785156 0.765625 -5.515625 L 0.765625 -5.828125 C 0.765625 -6.984375 0.988281 -8.019531 1.4375 -8.9375 C 1.894531 -9.863281 2.535156 -10.570312 3.359375 -11.0625 C 4.179688 -11.5625 5.125 -11.8125 6.1875 -11.8125 C 7.769531 -11.8125 9.015625 -11.3125 9.921875 -10.3125 C 10.835938 -9.3125 11.296875 -7.894531 11.296875 -6.0625 L 11.296875 -4.796875 L 3.90625 -4.796875 C 4.007812 -4.035156 4.3125 -3.425781 4.8125 -2.96875 C 5.320312 -2.507812 5.960938 -2.28125 6.734375 -2.28125 C 7.921875 -2.28125 8.851562 -2.710938 9.53125 -3.578125 L 11.046875 -1.875 C 10.585938 -1.21875 9.957031 -0.703125 9.15625 -0.328125 C 8.363281 0.0351562 7.488281 0.21875 6.53125 0.21875 Z M 6.171875 -9.296875 C 5.554688 -9.296875 5.054688 -9.085938 4.671875 -8.671875 C 4.296875 -8.265625 4.050781 -7.675781 3.9375 -6.90625 L 8.25 -6.90625 L 8.25 -7.15625 C 8.238281 -7.832031 8.050781 -8.359375 7.6875 -8.734375 C 7.332031 -9.109375 6.828125 -9.296875 6.171875 -9.296875 Z M 6.171875 -9.296875 "/></g></g></g><g fill="#d9d9d9" fill-opacity="1"><g transform="translate(120.919442, 141.074729)"><g><path d="M 4.453125 0 L 1.34375 0 L 1.34375 -16.46875 L 4.453125 -16.46875 Z M 4.453125 0 "/></g></g></g><g fill="#d9d9d9" fill-opacity="1"><g transform="translate(127.17864, 141.074729)"><g><path d="M 0.703125 -5.90625 C 0.703125 -7.050781 0.921875 -8.070312 1.359375 -8.96875 C 1.804688 -9.875 2.445312 -10.570312 3.28125 -11.0625 C 4.113281 -11.5625 5.082031 -11.8125 6.1875 -11.8125 C 7.75 -11.8125 9.023438 -11.332031 10.015625 -10.375 C 11.003906 -9.414062 11.554688 -8.113281 11.671875 -6.46875 L 11.6875 -5.6875 C 11.6875 -3.90625 11.191406 -2.472656 10.203125 -1.390625 C 9.210938 -0.316406 7.878906 0.21875 6.203125 0.21875 C 4.535156 0.21875 3.203125 -0.316406 2.203125 -1.390625 C 1.203125 -2.460938 0.703125 -3.921875 0.703125 -5.765625 Z M 3.8125 -5.6875 C 3.8125 -4.582031 4.015625 -3.738281 4.421875 -3.15625 C 4.835938 -2.570312 5.429688 -2.28125 6.203125 -2.28125 C 6.953125 -2.28125 7.535156 -2.566406 7.953125 -3.140625 C 8.378906 -3.722656 8.59375 -4.644531 8.59375 -5.90625 C 8.59375 -6.988281 8.378906 -7.820312 7.953125 -8.40625 C 7.535156 -9 6.945312 -9.296875 6.1875 -9.296875 C 5.425781 -9.296875 4.835938 -9 4.421875 -8.40625 C 4.015625 -7.820312 3.8125 -6.914062 3.8125 -5.6875 Z M 3.8125 -5.6875 "/></g></g></g><g fill="#d9d9d9" fill-opacity="1"><g transform="translate(140.029504, 141.074729)"><g><path d="M 11.625 -5.6875 C 11.625 -3.90625 11.21875 -2.472656 10.40625 -1.390625 C 9.601562 -0.316406 8.507812 0.21875 7.125 0.21875 C 5.957031 0.21875 5.007812 -0.1875 4.28125 -1 L 4.28125 4.453125 L 1.1875 4.453125 L 1.1875 -11.59375 L 4.0625 -11.59375 L 4.171875 -10.46875 C 4.921875 -11.363281 5.898438 -11.8125 7.109375 -11.8125 C 8.535156 -11.8125 9.644531 -11.28125 10.4375 -10.21875 C 11.226562 -9.164062 11.625 -7.710938 11.625 -5.859375 Z M 8.53125 -5.921875 C 8.53125 -6.992188 8.335938 -7.820312 7.953125 -8.40625 C 7.578125 -9 7.023438 -9.296875 6.296875 -9.296875 C 5.316406 -9.296875 4.644531 -8.921875 4.28125 -8.171875 L 4.28125 -3.4375 C 4.664062 -2.664062 5.34375 -2.28125 6.3125 -2.28125 C 7.789062 -2.28125 8.53125 -3.492188 8.53125 -5.921875 Z M 8.53125 -5.921875 "/></g></g></g><g fill="#d9d9d9" fill-opacity="1"><g transform="translate(152.826782, 141.074729)"><g><path d="M 11.625 -5.6875 C 11.625 -3.90625 11.21875 -2.472656 10.40625 -1.390625 C 9.601562 -0.316406 8.507812 0.21875 7.125 0.21875 C 5.957031 0.21875 5.007812 -0.1875 4.28125 -1 L 4.28125 4.453125 L 1.1875 4.453125 L 1.1875 -11.59375 L 4.0625 -11.59375 L 4.171875 -10.46875 C 4.921875 -11.363281 5.898438 -11.8125 7.109375 -11.8125 C 8.535156 -11.8125 9.644531 -11.28125 10.4375 -10.21875 C 11.226562 -9.164062 11.625 -7.710938 11.625 -5.859375 Z M 8.53125 -5.921875 C 8.53125 -6.992188 8.335938 -7.820312 7.953125 -8.40625 C 7.578125 -9 7.023438 -9.296875 6.296875 -9.296875 C 5.316406 -9.296875 4.644531 -8.921875 4.28125 -8.171875 L 4.28125 -3.4375 C 4.664062 -2.664062 5.34375 -2.28125 6.3125 -2.28125 C 7.789062 -2.28125 8.53125 -3.492188 8.53125 -5.921875 Z M 8.53125 -5.921875 "/></g></g></g><g fill="#d9d9d9" fill-opacity="1"><g transform="translate(165.624055, 141.074729)"><g><path d="M 6.53125 0.21875 C 4.832031 0.21875 3.445312 -0.300781 2.375 -1.34375 C 1.300781 -2.394531 0.765625 -3.785156 0.765625 -5.515625 L 0.765625 -5.828125 C 0.765625 -6.984375 0.988281 -8.019531 1.4375 -8.9375 C 1.894531 -9.863281 2.535156 -10.570312 3.359375 -11.0625 C 4.179688 -11.5625 5.125 -11.8125 6.1875 -11.8125 C 7.769531 -11.8125 9.015625 -11.3125 9.921875 -10.3125 C 10.835938 -9.3125 11.296875 -7.894531 11.296875 -6.0625 L 11.296875 -4.796875 L 3.90625 -4.796875 C 4.007812 -4.035156 4.3125 -3.425781 4.8125 -2.96875 C 5.320312 -2.507812 5.960938 -2.28125 6.734375 -2.28125 C 7.921875 -2.28125 8.851562 -2.710938 9.53125 -3.578125 L 11.046875 -1.875 C 10.585938 -1.21875 9.957031 -0.703125 9.15625 -0.328125 C 8.363281 0.0351562 7.488281 0.21875 6.53125 0.21875 Z M 6.171875 -9.296875 C 5.554688 -9.296875 5.054688 -9.085938 4.671875 -8.671875 C 4.296875 -8.265625 4.050781 -7.675781 3.9375 -6.90625 L 8.25 -6.90625 L 8.25 -7.15625 C 8.238281 -7.832031 8.050781 -8.359375 7.6875 -8.734375 C 7.332031 -9.109375 6.828125 -9.296875 6.171875 -9.296875 Z M 6.171875 -9.296875 "/></g></g></g><g fill="#d9d9d9" fill-opacity="1"><g transform="translate(177.928298, 141.074729)"><g><path d="M 4.09375 -11.59375 L 4.1875 -10.296875 C 5.007812 -11.304688 6.125 -11.8125 7.53125 -11.8125 C 9.019531 -11.8125 10.039062 -11.222656 10.59375 -10.046875 C 11.414062 -11.222656 12.578125 -11.8125 14.078125 -11.8125 C 15.335938 -11.8125 16.273438 -11.441406 16.890625 -10.703125 C 17.503906 -9.972656 17.8125 -8.875 17.8125 -7.40625 L 17.8125 0 L 14.703125 0 L 14.703125 -7.390625 C 14.703125 -8.046875 14.570312 -8.523438 14.3125 -8.828125 C 14.0625 -9.140625 13.609375 -9.296875 12.953125 -9.296875 C 12.023438 -9.296875 11.382812 -8.851562 11.03125 -7.96875 L 11.046875 0 L 7.9375 0 L 7.9375 -7.390625 C 7.9375 -8.054688 7.804688 -8.539062 7.546875 -8.84375 C 7.285156 -9.144531 6.835938 -9.296875 6.203125 -9.296875 C 5.316406 -9.296875 4.675781 -8.929688 4.28125 -8.203125 L 4.28125 0 L 1.1875 0 L 1.1875 -11.59375 Z M 4.09375 -11.59375 "/></g></g></g><g fill="#d9d9d9" fill-opacity="1"><g transform="translate(197.370837, 141.074729)"><g><path d="M 6.53125 0.21875 C 4.832031 0.21875 3.445312 -0.300781 2.375 -1.34375 C 1.300781 -2.394531 0.765625 -3.785156 0.765625 -5.515625 L 0.765625 -5.828125 C 0.765625 -6.984375 0.988281 -8.019531 1.4375 -8.9375 C 1.894531 -9.863281 2.535156 -10.570312 3.359375 -11.0625 C 4.179688 -11.5625 5.125 -11.8125 6.1875 -11.8125 C 7.769531 -11.8125 9.015625 -11.3125 9.921875 -10.3125 C 10.835938 -9.3125 11.296875 -7.894531 11.296875 -6.0625 L 11.296875 -4.796875 L 3.90625 -4.796875 C 4.007812 -4.035156 4.3125 -3.425781 4.8125 -2.96875 C 5.320312 -2.507812 5.960938 -2.28125 6.734375 -2.28125 C 7.921875 -2.28125 8.851562 -2.710938 9.53125 -3.578125 L 11.046875 -1.875 C 10.585938 -1.21875 9.957031 -0.703125 9.15625 -0.328125 C 8.363281 0.0351562 7.488281 0.21875 6.53125 0.21875 Z M 6.171875 -9.296875 C 5.554688 -9.296875 5.054688 -9.085938 4.671875 -8.671875 C 4.296875 -8.265625 4.050781 -7.675781 3.9375 -6.90625 L 8.25 -6.90625 L 8.25 -7.15625 C 8.238281 -7.832031 8.050781 -8.359375 7.6875 -8.734375 C 7.332031 -9.109375 6.828125 -9.296875 6.171875 -9.296875 Z M 6.171875 -9.296875 "/></g></g></g><g fill="#d9d9d9" fill-opacity="1"><g transform="translate(209.67508, 141.074729)"><g><path d="M 4.046875 -11.59375 L 4.140625 -10.265625 C 4.960938 -11.296875 6.070312 -11.8125 7.46875 -11.8125 C 8.695312 -11.8125 9.609375 -11.445312 10.203125 -10.71875 C 10.804688 -10 11.117188 -8.925781 11.140625 -7.5 L 11.140625 0 L 8.046875 0 L 8.046875 -7.421875 C 8.046875 -8.078125 7.898438 -8.550781 7.609375 -8.84375 C 7.328125 -9.144531 6.851562 -9.296875 6.1875 -9.296875 C 5.3125 -9.296875 4.65625 -8.921875 4.21875 -8.171875 L 4.21875 0 L 1.125 0 L 1.125 -11.59375 Z M 4.046875 -11.59375 "/></g></g></g><g fill="#d9d9d9" fill-opacity="1"><g transform="translate(222.408049, 141.074729)"><g><path d="M 4.90625 -14.453125 L 4.90625 -11.59375 L 6.875 -11.59375 L 6.875 -9.328125 L 4.90625 -9.328125 L 4.90625 -3.53125 C 4.90625 -3.101562 4.984375 -2.796875 5.140625 -2.609375 C 5.304688 -2.429688 5.625 -2.34375 6.09375 -2.34375 C 6.4375 -2.34375 6.738281 -2.363281 7 -2.40625 L 7 -0.0625 C 6.394531 0.125 5.769531 0.21875 5.125 0.21875 C 2.945312 0.21875 1.835938 -0.878906 1.796875 -3.078125 L 1.796875 -9.328125 L 0.109375 -9.328125 L 0.109375 -11.59375 L 1.796875 -11.59375 L 1.796875 -14.453125 Z M 4.90625 -14.453125 "/></g></g></g><path stroke-linecap="butt" transform="matrix(-0.00520715, -0.750218, 0.749982, -0.00520551, 235.651689, 145.33143)" fill="none" stroke-linejoin="miter" d="M -0.000785437 6.001012 L 148.966364 5.998813 " stroke="#d9d9d9" stroke-width="12" stroke-opacity="1" stroke-miterlimit="4"/></svg>